<svg width="23.980957" height="24.000000" viewBox="0 0 23.981 24" fill="none" xmlns="http://www.w3.org/2000/svg" xmlns:xlink="http://www.w3.org/1999/xlink">
	<desc>
			Created with Pixso.
	</desc>
	<defs>
		<linearGradient x1="0.000001" y1="10.464000" x2="11.990527" y2="24.000000" id="paint_linear_1_813_0" gradientUnits="userSpaceOnUse">
			<stop stop-color="#00A854"/>
			<stop offset="1.000000" stop-color="#004D25"/>
		</linearGradient>
	</defs>
	<path id="Union 1" d="M5.51 22.2L5.51 12.82L11.12 18.45L11.15 18.45L11.15 24C9.15 23.89 7.2 23.27 5.51 22.2ZM12.82 18.48L18.5 12.79L18.5 22.16C16.81 23.27 14.84 23.9 12.82 23.97L12.82 18.48ZM18.5 18.28L18.5 12.78L23.98 12.78C23.85 14.73 23.24 16.61 22.21 18.27L18.5 18.28ZM1.8 18.28C0.76 16.62 0.16 14.73 0.03 12.78L5.51 12.78L5.51 18.27L1.8 18.28ZM8.51 12.01C8.51 11.32 8.72 10.65 9.1 10.08C9.48 9.51 10.03 9.07 10.66 8.8C11.3 8.54 11.99 8.47 12.67 8.61C13.34 8.74 13.96 9.08 14.44 9.56C14.93 10.05 15.26 10.67 15.39 11.34C15.53 12.02 15.46 12.71 15.19 13.35C14.93 13.98 14.49 14.53 13.91 14.91C13.34 15.29 12.67 15.49 11.99 15.49C11.53 15.49 11.08 15.4 10.66 15.23C10.23 15.05 9.85 14.8 9.53 14.47C9.21 14.15 8.95 13.77 8.78 13.34C8.6 12.92 8.51 12.47 8.51 12.01ZM18.37 11.14L12.82 5.59L12.82 0C14.83 0.12 16.78 0.77 18.46 1.87L18.46 5.64L18.48 5.65L22.18 5.65C23.2 7.3 23.81 9.17 23.94 11.11L23.98 11.14L18.37 11.14ZM0 11.14L0.04 11.1C0.19 9.17 0.79 7.3 1.8 5.65L5.49 5.65L5.51 5.64L5.51 1.87C7.19 0.77 9.14 0.12 11.15 0L11.15 5.59L5.61 11.14L0 11.14Z" fill="url(#paint_linear_1_813_0)" fill-opacity="1.000000" fill-rule="nonzero"/>
</svg>
