<svg width="16.000000" height="16.000000" viewBox="0 0 16 16" fill="none" xmlns="http://www.w3.org/2000/svg" xmlns:xlink="http://www.w3.org/1999/xlink">
	<desc>
			Created with Pixso.
	</desc>
	<defs>
		<clipPath id="clip1_2217">
			<rect id="search" width="16.000000" height="16.000000" fill="white" fill-opacity="0"/>
		</clipPath>
	</defs>
	<rect id="search" width="16.000000" height="16.000000" fill="#FFFFFF" fill-opacity="0"/>
	<g clip-path="url(#clip1_2217)">
		<path id="Vector" d="M3.54 9.66L2.98 11.74L0.95 11.79C0.34 10.66 0 9.37 0 7.99C0 6.67 0.32 5.42 0.89 4.32L0.89 4.32L2.7 4.65L3.5 6.45C3.33 6.93 3.24 7.45 3.24 7.99C3.24 8.58 3.35 9.14 3.54 9.66Z" fill="#FBBB00" fill-opacity="1.000000" fill-rule="nonzero"/>
		<path id="Vector" d="M15.86 6.5C15.95 6.98 16 7.48 16 8C16 8.57 15.93 9.13 15.82 9.67C15.43 11.5 14.41 13.1 13 14.23L13 14.23L10.72 14.12L10.4 12.1C11.33 11.55 12.06 10.69 12.45 9.67L8.17 9.67L8.17 6.5L12.51 6.5L15.86 6.5Z" fill="#518EF8" fill-opacity="1.000000" fill-rule="nonzero"/>
		<path id="Vector" d="M13 14.23L13 14.23C11.63 15.34 9.89 15.99 8 15.99C4.95 15.99 2.3 14.29 0.95 11.79L3.54 9.66C4.22 11.47 5.96 12.75 8 12.75C8.87 12.75 9.69 12.51 10.4 12.1L13 14.23Z" fill="#28B446" fill-opacity="1.000000" fill-rule="nonzero"/>
		<path id="Vector" d="M13.1 1.84L10.51 3.96C9.78 3.5 8.92 3.24 8 3.24C5.91 3.24 4.14 4.58 3.5 6.45L0.89 4.32L0.89 4.32C2.22 1.75 4.9 0 8 0C9.94 0 11.72 0.69 13.1 1.84Z" fill="#F14336" fill-opacity="1.000000" fill-rule="nonzero"/>
	</g>
</svg>
