<svg width="13.333374" height="13.333374" viewBox="0 0 13.3334 13.3334" fill="none" xmlns="http://www.w3.org/2000/svg" xmlns:xlink="http://www.w3.org/1999/xlink">
	<desc>
			Created with Pixso.
	</desc>
	<defs/>
	<path id="Vector" d="M6 8.66L7.33 8.66L7.33 10L6 10L6 8.66ZM6 3.33L7.33 3.33L7.33 7.33L6 7.33L6 3.33ZM6.66 0C2.97 0 0 2.98 0 6.66C0 10.34 2.97 13.33 6.66 13.33C10.34 13.33 13.33 10.34 13.33 6.66C13.33 2.98 10.34 0 6.66 0ZM6.66 12C3.71 12 1.33 9.61 1.33 6.66C1.33 3.71 3.71 1.33 6.66 1.33C9.61 1.33 12 3.71 12 6.66C12 9.61 9.61 12 6.66 12Z" fill="#000000" fill-opacity="1.000000" fill-rule="nonzero"/>
</svg>
