<svg width="22.000000" height="11.916626" viewBox="0 0 22 11.9166" fill="none" xmlns="http://www.w3.org/2000/svg" xmlns:xlink="http://www.w3.org/1999/xlink">
	<desc>
			Created with Pixso.
	</desc>
	<defs/>
	<path id="Vector" d="M7.33 4.58L4.58 4.58L4.58 1.83L2.75 1.83L2.75 4.58L0 4.58L0 6.41L2.75 6.41L2.75 9.16L4.58 9.16L4.58 6.41L7.33 6.41L7.33 4.58ZM16.5 5.5C18.02 5.5 19.24 4.27 19.24 2.75C19.24 1.22 18.02 0 16.5 0C16.2 0 15.92 0.04 15.66 0.12C16.18 0.87 16.49 1.76 16.49 2.75C16.49 3.73 16.17 4.62 15.66 5.37C15.92 5.45 16.2 5.5 16.5 5.5ZM11.91 5.5C13.43 5.5 14.65 4.27 14.65 2.75C14.65 1.22 13.43 0 11.91 0C10.39 0 9.16 1.22 9.16 2.75C9.16 4.27 10.39 5.5 11.91 5.5ZM17.98 7.47C18.74 8.14 19.25 9 19.25 10.08L19.25 11.91L22 11.91L22 10.08C22 8.67 19.82 7.8 17.98 7.47ZM11.91 7.33C10.08 7.33 6.41 8.25 6.41 10.08L6.41 11.91L17.41 11.91L17.41 10.08C17.41 8.25 13.75 7.33 11.91 7.33Z" fill="#FFFFFF" fill-opacity="1.000000" fill-rule="nonzero"/>
</svg>
