<svg width="22.000000" height="22.000000" viewBox="0 0 22 22" fill="none" xmlns="http://www.w3.org/2000/svg" xmlns:xlink="http://www.w3.org/1999/xlink">
	<desc>
			Created with Pixso.
	</desc>
	<defs>
		<clipPath id="clip1_1222">
			<rect id="outline-exit_to_app-24px" width="22.000000" height="22.000000" fill="white" fill-opacity="0"/>
		</clipPath>
	</defs>
	<rect id="outline-exit_to_app-24px" width="22.000000" height="22.000000" fill="#FFFFFF" fill-opacity="0"/>
	<g clip-path="url(#clip1_1222)">
		<path id="Vector" d="M9.24 14.29L10.54 15.58L15.12 11L10.54 6.41L9.24 7.7L11.61 10.08L2.75 10.08L2.75 11.91L11.61 11.91L9.24 14.29ZM17.41 2.75L4.58 2.75C3.56 2.75 2.75 3.57 2.75 4.58L2.75 8.25L4.58 8.25L4.58 4.58L17.41 4.58L17.41 17.41L4.58 17.41L4.58 13.75L2.75 13.75L2.75 17.41C2.75 18.42 3.56 19.25 4.58 19.25L17.41 19.25C18.42 19.25 19.25 18.42 19.25 17.41L19.25 4.58C19.25 3.57 18.42 2.75 17.41 2.75Z" fill="#6A6A6B" fill-opacity="1.000000" fill-rule="nonzero"/>
	</g>
</svg>
