<svg width="162.565918" height="24.000000" viewBox="0 0 162.566 24" fill="none" xmlns="http://www.w3.org/2000/svg" xmlns:xlink="http://www.w3.org/1999/xlink">
	<desc>
			Created with Pixso.
	</desc>
	<defs>
		<clipPath id="clip1_786">
			<rect id="whole" width="162.565994" height="24.000000" fill="white" fill-opacity="0"/>
		</clipPath>
		<linearGradient x1="84.789551" y1="10.464000" x2="96.780075" y2="24.000000" id="paint_linear_1_813_0" gradientUnits="userSpaceOnUse">
			<stop stop-color="#00A854"/>
			<stop offset="1.000000" stop-color="#004D25"/>
		</linearGradient>
	</defs>
	<rect id="whole" width="162.565994" height="24.000000" fill="#FFFFFF" fill-opacity="0"/>
	<g clip-path="url(#clip1_786)">
		<path id="Ellipse 24" d="M100.27 12.01C100.27 13.93 98.71 15.49 96.79 15.49C94.87 15.49 93.31 13.93 93.31 12.01C93.31 10.09 94.87 8.53 96.79 8.53C98.71 8.53 100.27 10.09 100.27 12.01Z" fill="#CDDC36" fill-opacity="1.000000" fill-rule="evenodd"/>
		<path id="Path 951" d="M84.78 11.14L90.27 5.65L86.56 5.65C85.54 7.31 84.93 9.2 84.78 11.14Z" fill="#DAE233" fill-opacity="1.000000" fill-rule="nonzero"/>
		<path id="Path 952" d="M95.95 0C93.94 0.12 91.99 0.77 90.3 1.87L90.3 5.65L95.95 0Z" fill="#DAE233" fill-opacity="1.000000" fill-rule="nonzero"/>
		<path id="Path 954" d="M108.76 11.14L103.28 5.65L106.99 5.65C108.03 7.31 108.64 9.19 108.76 11.14Z" fill="#DAE233" fill-opacity="1.000000" fill-rule="nonzero"/>
		<path id="Path 955" d="M97.63 0C99.64 0.12 101.59 0.77 103.28 1.87L103.28 5.65L97.63 0Z" fill="#DAE233" fill-opacity="1.000000" fill-rule="nonzero"/>
		<path id="Path 957" d="M90.3 12.78L84.82 12.78C84.95 14.73 85.55 16.62 86.59 18.27L90.3 18.27L90.3 12.78Z" fill="#DAE233" fill-opacity="1.000000" fill-rule="nonzero"/>
		<path id="Path 958" d="M103.31 12.78L108.8 12.78C108.67 14.73 108.06 16.62 107.03 18.27L103.31 18.27L103.31 12.78Z" fill="#DAE233" fill-opacity="1.000000" fill-rule="nonzero"/>
		<path id="Path 959" d="M95.95 5.59L90.41 11.14L84.78 11.14L95.95 -0.01L95.95 5.59Z" fill="#46B746" fill-opacity="1.000000" fill-rule="nonzero"/>
		<path id="Path 960" d="M97.63 23.96C99.65 23.89 101.62 23.26 103.31 22.15L103.31 12.78L97.63 18.47L97.63 23.96Z" fill="#46B746" fill-opacity="1.000000" fill-rule="nonzero"/>
		<path id="Path 961" d="M95.92 18.44L90.3 12.82L90.3 22.19C92 23.27 93.95 23.89 95.95 24L95.95 18.45L95.92 18.44Z" fill="#46B746" fill-opacity="1.000000" fill-rule="nonzero"/>
		<path id="Path 962" d="M97.63 5.59L103.17 11.14L108.79 11.14L97.63 0L97.63 5.59Z" fill="#46B746" fill-opacity="1.000000" fill-rule="nonzero"/>
		<path id="Path 963" d="M17.68 22.62C17.5 22.63 17.32 22.59 17.16 22.48C17.01 22.38 16.9 22.22 16.85 22.05L14.3 15.12L4.18 15.12L1.7 22.05C1.64 22.22 1.53 22.37 1.38 22.47C1.23 22.57 1.05 22.62 0.87 22.62C0.72 22.62 0.58 22.58 0.45 22.51C0.32 22.44 0.21 22.34 0.13 22.21C0.05 22.09 0 21.95 -0.01 21.8C-0.02 21.66 0 21.51 0.06 21.38L6.62 3.27C6.75 2.67 7.09 2.13 7.57 1.75C8.05 1.37 8.65 1.16 9.26 1.17C9.87 1.17 10.47 1.37 10.95 1.75C11.44 2.12 11.78 2.65 11.94 3.24L18.53 21.39C18.57 21.48 18.59 21.58 18.6 21.69C18.59 21.93 18.5 22.16 18.33 22.33C18.16 22.51 17.93 22.61 17.68 22.62ZM4.84 13.35L13.64 13.35L10.16 3.6C10.12 3.39 10.01 3.2 9.84 3.06C9.68 2.92 9.47 2.84 9.26 2.83C8.86 2.83 8.56 3.1 8.36 3.64L4.84 13.35Z" fill="#27A365" fill-opacity="1.000000" fill-rule="nonzero"/>
		<path id="Path 964" d="M24.51 3.21L17.95 3.21C17.83 3.22 17.72 3.2 17.6 3.16C17.49 3.12 17.39 3.05 17.3 2.97C17.22 2.89 17.15 2.79 17.1 2.68C17.05 2.57 17.03 2.46 17.03 2.34C17.03 2.22 17.05 2.1 17.1 1.99C17.15 1.88 17.22 1.79 17.3 1.7C17.39 1.62 17.49 1.56 17.6 1.52C17.72 1.48 17.83 1.46 17.95 1.47L32.7 1.47C32.93 1.47 33.15 1.56 33.32 1.72C33.48 1.89 33.57 2.11 33.57 2.34C33.57 2.57 33.48 2.79 33.32 2.95C33.15 3.12 32.93 3.21 32.7 3.21L26.25 3.21L26.25 21.82C26.25 21.93 26.23 22.05 26.18 22.15C26.14 22.26 26.08 22.35 26 22.43C25.92 22.51 25.82 22.58 25.71 22.62C25.61 22.67 25.5 22.69 25.38 22.69C25.27 22.69 25.15 22.67 25.05 22.62C24.94 22.58 24.85 22.51 24.77 22.43C24.69 22.35 24.62 22.26 24.58 22.15C24.54 22.05 24.51 21.93 24.51 21.82L24.51 3.21Z" fill="#27A365" fill-opacity="1.000000" fill-rule="nonzero"/>
		<path id="Path 965" d="M51.6 15.49C51.6 16.47 51.41 17.43 51.03 18.33C50.65 19.23 50.09 20.04 49.39 20.71C48.64 21.46 47.74 22.04 46.75 22.42C45.76 22.8 44.7 22.97 43.64 22.92C42.53 22.95 41.43 22.75 40.39 22.34C39.36 21.93 38.42 21.32 37.62 20.55C35.99 18.95 35.03 16.8 34.91 14.52C34.78 12.89 34.78 11.24 34.91 9.6C35.03 7.34 35.99 5.21 37.62 3.64C38.41 2.86 39.35 2.24 40.39 1.83C41.42 1.41 42.53 1.21 43.64 1.23C45.25 1.19 46.83 1.63 48.18 2.51C49.53 3.38 50.58 4.64 51.2 6.12C51.25 6.26 51.27 6.41 51.25 6.55C51.23 6.7 51.18 6.84 51.1 6.96C51.02 7.08 50.91 7.18 50.78 7.25C50.65 7.32 50.51 7.36 50.36 7.36C50.18 7.37 50 7.32 49.85 7.22C49.7 7.12 49.58 6.97 49.53 6.79C49.03 5.65 48.2 4.68 47.15 4.01C46.11 3.34 44.88 2.99 43.64 3.01C42.77 3 41.91 3.15 41.11 3.48C40.31 3.8 39.57 4.28 38.96 4.88C37.65 6.11 36.86 7.78 36.75 9.57C36.58 11.24 36.58 12.92 36.75 14.59C36.87 16.38 37.64 18.06 38.92 19.31C39.55 19.92 40.28 20.39 41.09 20.72C41.9 21.04 42.77 21.2 43.64 21.18C45.26 21.25 46.84 20.72 48.09 19.68C48.65 19.2 49.11 18.59 49.41 17.91C49.71 17.22 49.85 16.48 49.82 15.73L49.82 13.38L44.81 13.38C44.58 13.38 44.36 13.29 44.19 13.13C44.03 12.97 43.94 12.74 43.94 12.51C43.94 12.28 44.03 12.06 44.19 11.9C44.36 11.74 44.58 11.64 44.81 11.64L49.92 11.64C50.14 11.62 50.37 11.65 50.57 11.72C50.78 11.79 50.97 11.91 51.13 12.06C51.29 12.22 51.41 12.4 51.49 12.61C51.57 12.81 51.61 13.03 51.6 13.25L51.6 15.49Z" fill="#27A365" fill-opacity="1.000000" fill-rule="nonzero"/>
		<path id="Path 966" d="M57.16 21.89C57.16 22.02 57.14 22.16 57.1 22.29C57.05 22.41 56.98 22.53 56.88 22.63C56.79 22.73 56.68 22.8 56.55 22.85C56.42 22.9 56.29 22.93 56.15 22.92C56.02 22.92 55.89 22.89 55.76 22.84C55.64 22.79 55.53 22.71 55.43 22.61C55.34 22.52 55.27 22.4 55.22 22.28C55.17 22.15 55.15 22.02 55.15 21.89L55.15 20.25C55.05 18.91 57.22 18.91 57.16 20.25L57.16 21.89Z" fill="#27A365" fill-opacity="1.000000" fill-rule="nonzero"/>
		<path id="Path 967" d="M58.06 2.44C58.02 2.3 58.01 2.16 58.03 2.02C58.05 1.88 58.11 1.75 58.2 1.64C58.28 1.53 58.39 1.44 58.52 1.38C58.65 1.32 58.79 1.29 58.93 1.3C59.03 1.29 59.13 1.3 59.23 1.33C59.33 1.36 59.42 1.41 59.5 1.47C59.57 1.54 59.64 1.62 59.68 1.71C59.73 1.8 59.76 1.9 59.76 2L64.01 21.08C64.01 21.32 64.25 21.25 64.31 21.08L69.13 2.88C69.19 2.44 69.42 2.05 69.76 1.77C70.1 1.49 70.53 1.35 70.97 1.38C71.4 1.36 71.83 1.5 72.17 1.78C72.51 2.05 72.73 2.44 72.81 2.88L77.52 21.12C77.59 21.29 77.82 21.35 77.82 21.12L82.14 2.07C82.15 1.85 82.25 1.65 82.42 1.51C82.58 1.37 82.79 1.29 83.01 1.3C83.15 1.28 83.29 1.31 83.42 1.36C83.55 1.42 83.66 1.51 83.75 1.63C83.83 1.74 83.89 1.88 83.9 2.02C83.92 2.16 83.9 2.31 83.84 2.44L79.5 21.45C79.4 21.86 79.17 22.22 78.84 22.49C78.52 22.75 78.11 22.89 77.69 22.89C77.27 22.89 76.86 22.75 76.53 22.49C76.21 22.22 75.98 21.86 75.88 21.45L71.07 3.21C71.07 3.17 71.05 3.13 71.02 3.1C71 3.07 70.96 3.06 70.92 3.06C70.88 3.06 70.84 3.07 70.81 3.1C70.78 3.13 70.77 3.17 70.77 3.21L65.88 21.45C65.79 21.86 65.56 22.22 65.23 22.49C64.91 22.75 64.5 22.89 64.08 22.89C63.66 22.89 63.25 22.75 62.92 22.49C62.6 22.22 62.37 21.86 62.27 21.45L58.06 2.44Z" fill="#5C5D5D" fill-opacity="1.000000" fill-rule="nonzero"/>
		<path id="Path 968" d="M125.89 22.76C125.75 22.75 125.62 22.72 125.5 22.66C125.38 22.6 125.27 22.52 125.19 22.42L119.23 14.96C119.06 14.66 118.81 14.41 118.51 14.24C118.21 14.07 117.87 13.98 117.53 13.99L113.31 13.99L113.31 21.85C113.3 22.08 113.21 22.3 113.05 22.47C112.89 22.63 112.67 22.74 112.44 22.75C112.21 22.74 111.99 22.64 111.83 22.47C111.67 22.31 111.58 22.09 111.57 21.85L111.57 3.21C111.56 2.98 111.6 2.75 111.69 2.53C111.77 2.31 111.9 2.12 112.06 1.95C112.22 1.79 112.42 1.66 112.64 1.58C112.85 1.5 113.08 1.46 113.31 1.47L119.43 1.47C121.19 1.38 122.9 1.98 124.22 3.14C124.84 3.74 125.33 4.46 125.65 5.27C125.96 6.07 126.1 6.93 126.06 7.79C126.06 11.31 123.98 13.28 120.51 13.75L126.6 21.31C126.72 21.48 126.78 21.68 126.77 21.88C126.77 22 126.75 22.11 126.71 22.22C126.66 22.33 126.6 22.43 126.52 22.51C126.43 22.59 126.34 22.66 126.23 22.7C126.12 22.74 126 22.76 125.89 22.76ZM113.35 12.21L118.97 12.21C122.54 12.21 124.32 10.74 124.32 7.73C124.32 4.95 122.61 3.21 119.4 3.21L113.35 3.21L113.35 12.21Z" fill="#5C5D5D" fill-opacity="1.000000" fill-rule="nonzero"/>
		<path id="Path 969" d="M129.67 2.24C129.67 2.01 129.76 1.79 129.92 1.62C130.09 1.46 130.31 1.37 130.54 1.37C130.77 1.37 130.99 1.46 131.15 1.62C131.32 1.79 131.41 2.01 131.41 2.24L131.41 20.82L141.98 20.82C142.21 20.83 142.43 20.92 142.6 21.09C142.77 21.26 142.86 21.48 142.88 21.72C142.86 21.95 142.77 22.17 142.6 22.33C142.43 22.49 142.21 22.58 141.98 22.59L131.44 22.59C131.21 22.6 130.97 22.56 130.75 22.47C130.53 22.38 130.33 22.25 130.17 22.09C130 21.92 129.87 21.72 129.78 21.5C129.7 21.28 129.66 21.05 129.67 20.81L129.67 2.24Z" fill="#5C5D5D" fill-opacity="1.000000" fill-rule="nonzero"/>
		<path id="Path 970" d="M148.03 22.62C147.8 22.63 147.58 22.6 147.37 22.52C147.16 22.43 146.97 22.31 146.81 22.15C146.65 21.99 146.53 21.79 146.45 21.58C146.37 21.37 146.34 21.14 146.36 20.91L146.36 3.14C146.34 2.91 146.37 2.69 146.45 2.48C146.53 2.26 146.65 2.07 146.81 1.91C146.97 1.75 147.16 1.62 147.37 1.54C147.58 1.46 147.8 1.42 148.03 1.43L153.25 1.43C154.48 1.35 155.71 1.53 156.86 1.96C158.01 2.38 159.06 3.05 159.94 3.91C161.59 5.67 162.51 7.99 162.52 10.4C162.58 11.51 162.58 12.61 162.52 13.72C162.48 16.12 161.55 18.43 159.9 20.18C159.02 21.03 157.98 21.68 156.83 22.1C155.69 22.52 154.47 22.7 153.25 22.63L148.03 22.63L148.03 22.62ZM160.77 10.34C160.5 5.85 158.06 3.21 153.21 3.21L148.13 3.21L148.13 20.81L153.21 20.81C158.06 20.81 160.54 18.14 160.77 13.68C160.84 12.57 160.84 11.45 160.77 10.34L160.77 10.34Z" fill="#5C5D5D" fill-opacity="1.000000" fill-rule="nonzero"/>
		<path id="Union 1" d="M90.3 22.2L90.3 12.82L95.91 18.45L95.94 18.45L95.94 24C93.93 23.89 91.99 23.27 90.3 22.2ZM97.61 18.48L103.29 12.79L103.29 22.16C101.6 23.27 99.63 23.9 97.61 23.97L97.61 18.48ZM103.29 18.28L103.29 12.78L108.77 12.78C108.64 14.73 108.03 16.61 107 18.27L103.29 18.28ZM86.59 18.28C85.55 16.62 84.95 14.73 84.82 12.78L90.3 12.78L90.3 18.27L86.59 18.28ZM93.3 12.01C93.3 11.32 93.51 10.65 93.89 10.08C94.27 9.51 94.82 9.07 95.45 8.8C96.08 8.54 96.78 8.47 97.46 8.61C98.13 8.74 98.75 9.08 99.23 9.56C99.72 10.05 100.05 10.67 100.18 11.34C100.32 12.02 100.25 12.71 99.98 13.35C99.72 13.98 99.27 14.53 98.7 14.91C98.13 15.29 97.46 15.49 96.78 15.49C96.32 15.49 95.87 15.4 95.45 15.23C95.02 15.05 94.64 14.8 94.32 14.47C94 14.15 93.74 13.77 93.57 13.34C93.39 12.92 93.3 12.47 93.3 12.01ZM103.16 11.14L97.61 5.59L97.61 0C99.62 0.12 101.57 0.77 103.26 1.87L103.26 5.64L103.27 5.65L106.97 5.65C107.99 7.3 108.6 9.17 108.73 11.11L108.77 11.14L103.16 11.14ZM84.78 11.14L84.83 11.1C84.98 9.17 85.58 7.3 86.59 5.65L90.28 5.65L90.3 5.64L90.3 1.87C91.98 0.77 93.93 0.12 95.94 0L95.94 5.59L90.39 11.14L84.78 11.14Z" fill="url(#paint_linear_1_813_0)" fill-opacity="1.000000" fill-rule="nonzero"/>
	</g>
</svg>