<svg width="13.500000" height="14.939941" viewBox="0 0 13.5 14.9399" fill="none" xmlns="http://www.w3.org/2000/svg" xmlns:xlink="http://www.w3.org/1999/xlink">
	<desc>
			Created with Pixso.
	</desc>
	<defs/>
	<path id="Vector" d="M11.25 10.56C10.68 10.56 10.17 10.78 9.78 11.13L4.43 8.02C4.46 7.85 4.5 7.68 4.5 7.5C4.5 7.31 4.46 7.14 4.43 6.97L9.71 3.89C10.12 4.26 10.65 4.5 11.25 4.5C12.49 4.5 13.5 3.49 13.5 2.25C13.5 1 12.49 0 11.25 0C10 0 9 1 9 2.25C9 2.43 9.03 2.6 9.06 2.77L3.78 5.85C3.37 5.48 2.84 5.25 2.25 5.25C1 5.25 0 6.25 0 7.5C0 8.74 1 9.75 2.25 9.75C2.84 9.75 3.37 9.51 3.78 9.14L9.12 12.26C9.08 12.42 9.06 12.58 9.06 12.75C9.06 13.95 10.04 14.93 11.25 14.93C12.45 14.93 13.43 13.95 13.43 12.75C13.43 11.54 12.45 10.56 11.25 10.56Z" fill="#2D2D2D" fill-opacity="1.000000" fill-rule="nonzero"/>
</svg>
