<svg width="18.666626" height="4.666626" viewBox="0 0 18.6666 4.66663" fill="none" xmlns="http://www.w3.org/2000/svg" xmlns:xlink="http://www.w3.org/1999/xlink">
	<desc>
			Created with Pixso.
	</desc>
	<defs/>
	<path id="Vector" d="M14 2.33C14 3.61 15.04 4.66 16.33 4.66C17.61 4.66 18.66 3.61 18.66 2.33C18.66 1.05 17.61 0 16.33 0C15.04 0 14 1.05 14 2.33ZM11.66 2.33C11.66 1.05 10.61 0 9.33 0C8.04 0 7 1.05 7 2.33C7 3.61 8.04 4.66 9.33 4.66C10.61 4.66 11.66 3.61 11.66 2.33ZM4.66 2.33C4.66 1.05 3.61 0 2.33 0C1.04 0 0 1.05 0 2.33C0 3.61 1.04 4.66 2.33 4.66C3.61 4.66 4.66 3.61 4.66 2.33Z" fill="#000000" fill-opacity="1.000000" fill-rule="nonzero"/>
</svg>
